<svg id='hello-svg' width="533" height="169" viewBox="0 0 600 200" fill="none" xmlns="http://www.w3.org/2000/svg">
    <!-- <path d="M4.49765 165.4C5.29765 160.6 6.16432 155.733 7.09766 150.8C8.16432 145.867 9.43099 140.4 10.8977 134.4C12.4977 128.4 14.431 121.533 16.6977 113.8C19.0977 106.067 21.9643 97.0666 25.2977 86.8C23.2977 86.9333 21.0977 87.1333 18.6977 87.4C16.431 87.6666 14.2977 87.8667 12.2977 88C12.2977 83.7333 13.8977 80.4667 17.0977 78.2C20.2977 75.9333 24.4977 74.2667 29.6977 73.2C30.231 71.3333 30.6977 69.8666 31.0977 68.8C31.4977 67.7333 31.9643 66.4 32.4977 64.8C33.031 63.2 33.831 61 34.8977 58.2C35.9643 55.2667 37.3643 51.1333 39.0977 45.8C40.9643 40.4667 43.3643 33.4667 46.2977 24.8C46.5643 24.1333 47.031 22.8 47.6977 20.8C48.3643 18.8 48.6977 16.9333 48.6977 15.2C48.6977 14.1333 48.4977 13.4 48.0977 13C47.831 12.6 47.1643 12.4 46.0977 12.4C43.431 12.4 40.6977 13.6 37.8977 16C35.231 18.4 32.7643 21.4667 30.4977 25.2C28.231 28.8 26.431 32.6 25.0977 36.6C23.7643 40.4667 23.0977 43.9333 23.0977 47C23.0977 48.0667 23.231 49.2667 23.4977 50.6C23.7643 51.9333 24.2977 53.7333 25.0977 56C19.4977 56 15.431 54.8 12.8977 52.4C10.4977 49.8667 9.29765 46.6667 9.29765 42.8C9.29765 38.2667 10.631 33.7333 13.2977 29.2C16.0977 24.6667 19.631 20.5333 23.8977 16.8C28.2977 12.9333 32.8977 9.86665 37.6977 7.59999C42.631 5.19999 47.1643 3.99998 51.2977 3.99998C55.5643 3.99998 58.4977 5.13332 60.0977 7.39999C61.6977 9.66666 62.4977 12.2 62.4977 15C62.4977 16.4666 62.2977 17.9333 61.8977 19.4C61.631 20.8667 61.2977 22.2667 60.8977 23.6L46.2977 71.6C47.8977 71.4667 49.4977 71.4 51.0977 71.4C52.831 71.4 54.5643 71.4 56.2977 71.4C62.831 71.4 68.9643 71.5333 74.6977 71.8C80.431 72.0667 85.9643 72.4667 91.2977 73C94.631 61.8 97.431 52.6 99.6977 45.4C102.098 38.2 104.164 32.2667 105.898 27.6C107.764 22.8 109.431 18.6 110.898 15C111.431 13.9333 112.164 12.5333 113.098 10.8C114.164 8.93331 115.631 7.33332 117.498 5.99998C119.498 4.53332 122.098 3.79999 125.298 3.79999C123.564 8.46665 121.431 14.6666 118.898 22.4C116.498 30 114.031 38.3333 111.498 47.4C108.964 56.3333 106.564 65.2 104.298 74C106.164 74 108.764 74.1333 112.098 74.4C115.564 74.5333 118.764 74.6 121.698 74.6C117.564 78.7333 113.898 81.3333 110.698 82.4C107.498 83.3333 104.564 83.8 101.898 83.8C100.431 89.9333 99.0977 95.8 97.8977 101.4C96.6977 107 95.6977 112.2 94.8977 117C93.2977 125.533 92.0977 133 91.2977 139.4C90.631 145.667 90.2977 150.8 90.2977 154.8C90.2977 156.933 90.3643 158.8 90.4977 160.4C90.7643 162.133 91.031 163.8 91.2977 165.4C84.4977 164.733 79.831 163.067 77.2977 160.4C74.8977 157.867 73.6977 153.333 73.6977 146.8C73.6977 143.733 73.8977 140.333 74.2977 136.6C74.831 132.867 75.6977 128.467 76.8977 123.4C77.9643 118.467 79.431 112.8 81.2977 106.4C83.1643 100 85.431 92.5333 88.0977 84C79.9643 84 73.231 84.0667 67.8977 84.2C62.5643 84.3333 57.8977 84.4667 53.8977 84.6C49.8977 84.7333 45.8977 85 41.8977 85.4C41.7643 85.9333 41.431 87.0667 40.8977 88.8C40.3643 90.5333 39.431 93.6 38.0977 98C36.7643 102.4 34.7643 108.867 32.0977 117.4C29.431 125.933 25.831 137.4 21.2977 151.8C19.831 156.733 17.2977 160.2 13.6977 162.2C10.0977 164.333 7.03098 165.4 4.49765 165.4Z"/>
    <path d="M141.618 156.8C133.085 156.8 126.485 154.467 121.818 149.8C117.285 145.267 115.018 139.533 115.018 132.6C115.018 126.733 116.485 120.533 119.418 114C122.485 107.333 126.551 101.133 131.618 95.4C136.685 89.5333 142.285 84.8 148.418 81.2C154.551 77.6 160.685 75.8 166.818 75.8C170.285 75.8 173.551 76.7333 176.618 78.6C179.818 80.3333 181.418 83.8667 181.418 89.2C181.418 94.2667 179.951 99 177.018 103.4C174.085 107.8 170.151 111.733 165.218 115.2C160.285 118.667 154.818 121.533 148.818 123.8C142.951 125.933 137.018 127.333 131.018 128C130.885 128.533 130.751 129.133 130.618 129.8C130.618 130.333 130.618 131.267 130.618 132.6C130.618 133.267 130.685 134.467 130.818 136.2C131.085 137.8 131.685 139.533 132.618 141.4C133.551 143.267 135.085 144.867 137.218 146.2C139.351 147.533 142.285 148.2 146.018 148.2C151.618 148.2 157.218 146.667 162.818 143.6C168.551 140.4 173.885 136.2 178.818 131C183.885 125.8 188.085 120 191.418 113.6L195.418 116.8C191.818 124.8 187.151 131.8 181.418 137.8C175.818 143.8 169.551 148.467 162.618 151.8C155.818 155.133 148.818 156.8 141.618 156.8ZM133.218 120.6C136.685 120.2 140.551 119 144.818 117C149.085 115 153.151 112.467 157.018 109.4C161.018 106.333 164.285 103 166.818 99.4C169.351 95.6667 170.618 91.9333 170.618 88.2C170.618 86.7333 170.351 85.7333 169.818 85.2C169.285 84.6667 168.418 84.4 167.218 84.4C164.151 84.4 160.951 85.5333 157.618 87.8C154.285 89.9333 151.018 92.8 147.818 96.4C144.618 99.8667 141.751 103.733 139.218 108C136.685 112.267 134.685 116.467 133.218 120.6Z"/>
    <path d="M205.382 154C199.115 154 194.449 151.933 191.382 147.8C188.449 143.667 186.982 138.333 186.982 131.8C186.982 125.533 188.182 118.067 190.582 109.4C192.982 100.733 196.115 91.6 199.982 82C203.982 72.4 208.315 63 212.982 53.8C217.782 44.6 222.582 36.2667 227.382 28.8C232.182 21.2 236.582 15.2 240.582 10.8C244.715 6.26665 248.049 3.99998 250.582 3.99998C252.315 3.99998 253.782 4.93332 254.982 6.79999C256.182 8.53332 257.115 10.6667 257.782 13.2C258.582 15.7333 258.982 18.1333 258.982 20.4C258.982 23.8666 258.049 28.4667 256.182 34.2C254.449 39.8 251.915 46 248.582 52.8C245.382 59.6 241.515 66.6 236.982 73.8C232.582 80.8667 227.649 87.6667 222.182 94.2C216.849 100.6 211.115 106.2 204.982 111C204.449 114.333 203.915 117.867 203.382 121.6C202.982 125.2 202.782 128.333 202.782 131C202.782 140.2 205.649 144.8 211.382 144.8C214.315 144.8 217.315 143.6 220.382 141.2C223.582 138.667 226.649 135.4 229.582 131.4C232.515 127.267 235.182 122.8 237.582 118C238.915 111.2 240.915 103.867 243.582 96C246.249 88.1333 249.315 80.2667 252.782 72.4C256.382 64.4 260.182 56.8 264.182 49.6C268.182 42.2667 272.115 35.8 275.982 30.2C279.849 24.4667 283.382 20 286.582 16.8C289.915 13.4666 292.649 11.8 294.782 11.8C296.515 11.8 297.982 12.7333 299.182 14.6C300.515 16.3333 301.515 18.5333 302.182 21.2C302.982 23.7333 303.382 26.2 303.382 28.6C303.382 32.7333 302.249 38.2 299.982 45C297.715 51.6667 294.449 59 290.182 67C286.049 74.8667 280.982 82.6667 274.982 90.4C268.982 98.1333 262.182 105 254.582 111C253.915 114.067 253.382 117.333 252.982 120.8C252.582 124.267 252.382 127.333 252.382 130C252.382 139.867 255.115 144.8 260.582 144.8C264.049 144.8 267.582 143.267 271.182 140.2C274.782 137 278.182 132.933 281.382 128C284.582 123.067 287.315 118.067 289.582 113L294.582 115.6C288.982 127.467 282.849 136.867 276.182 143.8C269.649 150.6 262.449 154 254.582 154C248.449 154 243.915 152 240.982 148C238.049 144 236.515 138.8 236.382 132.4C231.849 139.2 226.982 144.467 221.782 148.2C216.715 152.067 211.249 154 205.382 154ZM208.582 99.8C212.982 95.1333 217.182 90 221.182 84.4C225.315 78.6667 229.115 72.8667 232.582 67C236.049 61.1333 239.049 55.4667 241.582 50C244.249 44.5333 246.315 39.6 247.782 35.2C249.249 30.8 249.982 27.3333 249.982 24.8C249.982 24.1333 249.982 23.6 249.982 23.2C249.982 22.8 249.849 22.5333 249.582 22.4C248.649 22.4 246.982 23.9333 244.582 27C242.182 29.9333 239.382 34 236.182 39.2C233.115 44.4 229.849 50.3333 226.382 57C223.049 63.5333 219.782 70.5333 216.582 78C213.515 85.3333 210.849 92.6 208.582 99.8ZM257.782 100C263.115 94.4 267.982 88.4 272.382 82C276.915 75.4667 280.782 69.0666 283.982 62.8C287.315 56.4 289.849 50.6 291.582 45.4C293.449 40.0666 294.382 35.8667 294.382 32.8C294.382 32.1333 294.382 31.6667 294.382 31.4C294.382 31 294.315 30.6667 294.182 30.4C292.849 30.4 290.715 32.3333 287.782 36.2C284.982 40.0667 281.782 45.3333 278.182 52C274.582 58.5333 270.982 65.9333 267.382 74.2C263.782 82.4667 260.582 91.0667 257.782 100Z"/>
    <path d="M297.829 154.4C291.829 154.4 287.696 152.4 285.429 148.4C283.296 144.533 282.229 140.267 282.229 135.6C282.229 131.333 282.896 127 284.229 122.6C285.562 118.067 287.362 113.867 289.629 110C292.029 106.133 294.629 103.067 297.429 100.8C300.362 98.4 303.296 97.2 306.229 97.2C307.162 97.2 308.229 97.4 309.429 97.8C310.762 98.0667 311.696 98.5333 312.229 99.2C310.629 101.2 308.962 103.667 307.229 106.6C305.629 109.533 304.096 112.667 302.629 116C301.296 119.2 300.229 122.467 299.429 125.8C298.629 129.133 298.229 132.2 298.229 135C298.229 137.667 298.696 139.867 299.629 141.6C300.696 143.333 302.496 144.2 305.029 144.2C307.562 144.2 310.562 142.8 314.029 140C317.629 137.067 321.029 133.733 324.229 130C319.962 126.133 316.896 121.933 315.029 117.4C313.162 112.733 312.229 107.133 312.229 100.6C312.229 97.8 312.896 94.6 314.229 91C315.696 87.4 317.962 84.2667 321.029 81.6C324.229 78.9333 328.496 77.6 333.829 77.6C339.562 77.6 343.562 79.2 345.829 82.4C348.229 85.6 349.429 89.4 349.429 93.8C349.429 98.7333 348.096 104.267 345.429 110.4C342.896 116.533 339.829 122.333 336.229 127.8C337.829 128.6 339.696 129 341.829 129C343.829 129 346.229 128.533 349.029 127.6C351.829 126.667 354.562 125.133 357.229 123C359.896 120.733 362.029 117.733 363.629 114L367.229 116.6C364.296 123.4 360.362 128.4 355.429 131.6C350.629 134.667 345.896 136.2 341.229 136.2C339.496 136.2 337.762 136.067 336.029 135.8C334.296 135.4 332.696 134.933 331.229 134.4C326.696 139.733 321.496 144.4 315.629 148.4C309.762 152.4 303.829 154.4 297.829 154.4ZM329.429 123.6C332.629 118.933 335.362 113.933 337.629 108.6C339.896 103.267 341.029 98.3333 341.029 93.8C341.029 90.7333 340.562 88.5333 339.629 87.2C338.696 85.7333 337.296 85 335.429 85C332.896 85 330.296 86.8 327.629 90.4C324.962 94 323.629 98.5333 323.629 104C323.629 106.8 324.096 110.2 325.029 114.2C326.096 118.2 327.562 121.333 329.429 123.6Z"/>
    <path d="M373.443 150C370.243 150 367.976 149.2 366.643 147.6C365.31 145.867 364.643 144.133 364.643 142.4C364.643 140.933 365.31 139.4 366.643 137.8C367.976 136.067 369.643 134.667 371.643 133.6C373.643 132.4 375.51 131.8 377.243 131.8C378.71 131.8 380.176 132.267 381.643 133.2C383.11 134 383.843 135.6 383.843 138C383.843 139.067 383.443 140.6 382.643 142.6C381.843 144.467 380.643 146.2 379.043 147.8C377.576 149.267 375.71 150 373.443 150Z"/>
    <path d="M421.88 150C418.68 150 416.414 149.2 415.08 147.6C413.747 145.867 413.08 144.133 413.08 142.4C413.08 140.933 413.747 139.4 415.08 137.8C416.414 136.067 418.08 134.667 420.08 133.6C422.08 132.4 423.947 131.8 425.68 131.8C427.147 131.8 428.614 132.267 430.08 133.2C431.547 134 432.28 135.6 432.28 138C432.28 139.067 431.88 140.6 431.08 142.6C430.28 144.467 429.08 146.2 427.48 147.8C426.014 149.267 424.147 150 421.88 150Z"/>
    <path d="M478.918 88.6C481.851 81 484.918 73.2 488.118 65.2C491.318 57.2 494.518 49.6 497.718 42.4C500.918 35.0667 504.051 28.5333 507.118 22.8C510.185 16.9333 513.118 12.3333 515.918 8.99998C518.851 5.66665 521.585 3.99998 524.118 3.99998C525.585 3.99998 526.851 4.59999 527.918 5.79999C529.118 6.86666 529.718 8.26665 529.718 9.99998C529.718 11.8666 528.585 15.5333 526.318 21C524.185 26.4667 521.318 33 517.718 40.6C514.118 48.2 510.118 56.2667 505.718 64.8C501.318 73.3333 496.918 81.7333 492.518 90C488.118 98.1333 483.985 105.467 480.118 112C476.251 118.533 473.051 123.6 470.518 127.2C470.118 127.067 469.718 126.933 469.318 126.8C468.918 126.667 468.518 126.533 468.118 126.4C468.251 122.933 468.851 119 469.918 114.6C471.118 110.2 472.518 105.733 474.118 101.2C475.851 96.5333 477.451 92.3333 478.918 88.6ZM463.918 150C461.785 150 459.918 149.467 458.318 148.4C456.718 147.333 455.918 145.6 455.918 143.2C455.918 140.667 457.251 138.467 459.918 136.6C462.718 134.733 465.718 133.8 468.918 133.8C470.918 133.8 472.518 134.267 473.718 135.2C475.051 136.133 475.718 137.733 475.718 140C475.718 142.267 474.518 144.533 472.118 146.8C469.718 148.933 466.985 150 463.918 150Z"/> -->
    
    <path d="M4.49765 165.4C5.29765 160.6 6.16432 155.733 7.09766 150.8C8.16432 145.867 9.43099 140.4 10.8977 134.4C12.4977 128.4 14.431 121.533 16.6977 113.8C19.0977 106.067 21.9643 97.0666 25.2977 86.8C23.2977 86.9333 21.0977 87.1333 18.6977 87.4C16.431 87.6666 14.2977 87.8667 12.2977 88C12.2977 83.7333 13.8977 80.4667 17.0977 78.2C20.2977 75.9333 24.4977 74.2667 29.6977 73.2C30.231 71.3333 30.6977 69.8666 31.0977 68.8C31.4977 67.7333 31.9643 66.4 32.4977 64.8C33.031 63.2 33.831 61 34.8977 58.2C35.9643 55.2667 37.3643 51.1333 39.0977 45.8C40.9643 40.4667 43.3643 33.4667 46.2977 24.8C46.5643 24.1333 47.031 22.8 47.6977 20.8C48.3643 18.8 48.6977 16.9333 48.6977 15.2C48.6977 14.1333 48.4977 13.4 48.0977 13C47.831 12.6 47.1643 12.4 46.0977 12.4C43.431 12.4 40.6977 13.6 37.8977 16C35.231 18.4 32.7643 21.4667 30.4977 25.2C28.231 28.8 26.431 32.6 25.0977 36.6C23.7643 40.4667 23.0977 43.9333 23.0977 47C23.0977 48.0667 23.231 49.2667 23.4977 50.6C23.7643 51.9333 24.2977 53.7333 25.0977 56C19.4977 56 15.431 54.8 12.8977 52.4C10.4977 49.8667 9.29765 46.6667 9.29765 42.8C9.29765 38.2667 10.631 33.7333 13.2977 29.2C16.0977 24.6667 19.631 20.5333 23.8977 16.8C28.2977 12.9333 32.8977 9.86665 37.6977 7.59999C42.631 5.19999 47.1643 3.99998 51.2977 3.99998C55.5643 3.99998 58.4977 5.13332 60.0977 7.39999C61.6977 9.66666 62.4977 12.2 62.4977 15C62.4977 16.4666 62.2977 17.9333 61.8977 19.4C61.631 20.8667 61.2977 22.2667 60.8977 23.6L46.2977 71.6C47.8977 71.4667 49.4977 71.4 51.0977 71.4C52.831 71.4 54.5643 71.4 56.2977 71.4C62.831 71.4 68.9643 71.5333 74.6977 71.8C80.431 72.0667 85.9643 72.4667 91.2977 73C94.631 61.8 97.431 52.6 99.6977 45.4C102.098 38.2 104.164 32.2667 105.898 27.6C107.764 22.8 109.431 18.6 110.898 15C111.431 13.9333 112.164 12.5333 113.098 10.8C114.164 8.93331 115.631 7.33332 117.498 5.99998C119.498 4.53332 122.098 3.79999 125.298 3.79999C123.564 8.46665 121.431 14.6666 118.898 22.4C116.498 30 114.031 38.3333 111.498 47.4C108.964 56.3333 106.564 65.2 104.298 74C106.164 74 108.764 74.1333 112.098 74.4C115.564 74.5333 118.764 74.6 121.698 74.6C117.564 78.7333 113.898 81.3333 110.698 82.4C107.498 83.3333 104.564 83.8 101.898 83.8C100.431 89.9333 99.0977 95.8 97.8977 101.4C96.6977 107 95.6977 112.2 94.8977 117C93.2977 125.533 92.0977 133 91.2977 139.4C90.631 145.667 90.2977 150.8 90.2977 154.8C90.2977 156.933 90.3643 158.8 90.4977 160.4C90.7643 162.133 91.031 163.8 91.2977 165.4C84.4977 164.733 79.831 163.067 77.2977 160.4C74.8977 157.867 73.6977 153.333 73.6977 146.8C73.6977 143.733 73.8977 140.333 74.2977 136.6C74.831 132.867 75.6977 128.467 76.8977 123.4C77.9643 118.467 79.431 112.8 81.2977 106.4C83.1643 100 85.431 92.5333 88.0977 84C79.9643 84 73.231 84.0667 67.8977 84.2C62.5643 84.3333 57.8977 84.4667 53.8977 84.6C49.8977 84.7333 45.8977 85 41.8977 85.4C41.7643 85.9333 41.431 87.0667 40.8977 88.8C40.3643 90.5333 39.431 93.6 38.0977 98C36.7643 102.4 34.7643 108.867 32.0977 117.4C29.431 125.933 25.831 137.4 21.2977 151.8C19.831 156.733 17.2977 160.2 13.6977 162.2C10.0977 164.333 7.03098 165.4 4.49765 165.4Z" stroke="black" stroke-width="6" mask="url(#path-1-outside-1_3_21)"/>
    <path d="M141.618 156.8C133.085 156.8 126.485 154.467 121.818 149.8C117.285 145.267 115.018 139.533 115.018 132.6C115.018 126.733 116.485 120.533 119.418 114C122.485 107.333 126.551 101.133 131.618 95.4C136.685 89.5333 142.285 84.8 148.418 81.2C154.551 77.6 160.685 75.8 166.818 75.8C170.285 75.8 173.551 76.7333 176.618 78.6C179.818 80.3333 181.418 83.8667 181.418 89.2C181.418 94.2667 179.951 99 177.018 103.4C174.085 107.8 170.151 111.733 165.218 115.2C160.285 118.667 154.818 121.533 148.818 123.8C142.951 125.933 137.018 127.333 131.018 128C130.885 128.533 130.751 129.133 130.618 129.8C130.618 130.333 130.618 131.267 130.618 132.6C130.618 133.267 130.685 134.467 130.818 136.2C131.085 137.8 131.685 139.533 132.618 141.4C133.551 143.267 135.085 144.867 137.218 146.2C139.351 147.533 142.285 148.2 146.018 148.2C151.618 148.2 157.218 146.667 162.818 143.6C168.551 140.4 173.885 136.2 178.818 131C183.885 125.8 188.085 120 191.418 113.6L195.418 116.8C191.818 124.8 187.151 131.8 181.418 137.8C175.818 143.8 169.551 148.467 162.618 151.8C155.818 155.133 148.818 156.8 141.618 156.8ZM133.218 120.6C136.685 120.2 140.551 119 144.818 117C149.085 115 153.151 112.467 157.018 109.4C161.018 106.333 164.285 103 166.818 99.4C169.351 95.6667 170.618 91.9333 170.618 88.2C170.618 86.7333 170.351 85.7333 169.818 85.2C169.285 84.6667 168.418 84.4 167.218 84.4C164.151 84.4 160.951 85.5333 157.618 87.8C154.285 89.9333 151.018 92.8 147.818 96.4C144.618 99.8667 141.751 103.733 139.218 108C136.685 112.267 134.685 116.467 133.218 120.6Z" stroke="black" stroke-width="6" mask="url(#path-1-outside-1_3_21)"/>
    <path d="M205.382 154C199.115 154 194.449 151.933 191.382 147.8C188.449 143.667 186.982 138.333 186.982 131.8C186.982 125.533 188.182 118.067 190.582 109.4C192.982 100.733 196.115 91.6 199.982 82C203.982 72.4 208.315 63 212.982 53.8C217.782 44.6 222.582 36.2667 227.382 28.8C232.182 21.2 236.582 15.2 240.582 10.8C244.715 6.26665 248.049 3.99998 250.582 3.99998C252.315 3.99998 253.782 4.93332 254.982 6.79999C256.182 8.53332 257.115 10.6667 257.782 13.2C258.582 15.7333 258.982 18.1333 258.982 20.4C258.982 23.8666 258.049 28.4667 256.182 34.2C254.449 39.8 251.915 46 248.582 52.8C245.382 59.6 241.515 66.6 236.982 73.8C232.582 80.8667 227.649 87.6667 222.182 94.2C216.849 100.6 211.115 106.2 204.982 111C204.449 114.333 203.915 117.867 203.382 121.6C202.982 125.2 202.782 128.333 202.782 131C202.782 140.2 205.649 144.8 211.382 144.8C214.315 144.8 217.315 143.6 220.382 141.2C223.582 138.667 226.649 135.4 229.582 131.4C232.515 127.267 235.182 122.8 237.582 118C238.915 111.2 240.915 103.867 243.582 96C246.249 88.1333 249.315 80.2667 252.782 72.4C256.382 64.4 260.182 56.8 264.182 49.6C268.182 42.2667 272.115 35.8 275.982 30.2C279.849 24.4667 283.382 20 286.582 16.8C289.915 13.4666 292.649 11.8 294.782 11.8C296.515 11.8 297.982 12.7333 299.182 14.6C300.515 16.3333 301.515 18.5333 302.182 21.2C302.982 23.7333 303.382 26.2 303.382 28.6C303.382 32.7333 302.249 38.2 299.982 45C297.715 51.6667 294.449 59 290.182 67C286.049 74.8667 280.982 82.6667 274.982 90.4C268.982 98.1333 262.182 105 254.582 111C253.915 114.067 253.382 117.333 252.982 120.8C252.582 124.267 252.382 127.333 252.382 130C252.382 139.867 255.115 144.8 260.582 144.8C264.049 144.8 267.582 143.267 271.182 140.2C274.782 137 278.182 132.933 281.382 128C284.582 123.067 287.315 118.067 289.582 113L294.582 115.6C288.982 127.467 282.849 136.867 276.182 143.8C269.649 150.6 262.449 154 254.582 154C248.449 154 243.915 152 240.982 148C238.049 144 236.515 138.8 236.382 132.4C231.849 139.2 226.982 144.467 221.782 148.2C216.715 152.067 211.249 154 205.382 154ZM208.582 99.8C212.982 95.1333 217.182 90 221.182 84.4C225.315 78.6667 229.115 72.8667 232.582 67C236.049 61.1333 239.049 55.4667 241.582 50C244.249 44.5333 246.315 39.6 247.782 35.2C249.249 30.8 249.982 27.3333 249.982 24.8C249.982 24.1333 249.982 23.6 249.982 23.2C249.982 22.8 249.849 22.5333 249.582 22.4C248.649 22.4 246.982 23.9333 244.582 27C242.182 29.9333 239.382 34 236.182 39.2C233.115 44.4 229.849 50.3333 226.382 57C223.049 63.5333 219.782 70.5333 216.582 78C213.515 85.3333 210.849 92.6 208.582 99.8ZM257.782 100C263.115 94.4 267.982 88.4 272.382 82C276.915 75.4667 280.782 69.0666 283.982 62.8C287.315 56.4 289.849 50.6 291.582 45.4C293.449 40.0666 294.382 35.8667 294.382 32.8C294.382 32.1333 294.382 31.6667 294.382 31.4C294.382 31 294.315 30.6667 294.182 30.4C292.849 30.4 290.715 32.3333 287.782 36.2C284.982 40.0667 281.782 45.3333 278.182 52C274.582 58.5333 270.982 65.9333 267.382 74.2C263.782 82.4667 260.582 91.0667 257.782 100Z" stroke="black" stroke-width="6" mask="url(#path-1-outside-1_3_21)"/>
    <path d="M297.829 154.4C291.829 154.4 287.696 152.4 285.429 148.4C283.296 144.533 282.229 140.267 282.229 135.6C282.229 131.333 282.896 127 284.229 122.6C285.562 118.067 287.362 113.867 289.629 110C292.029 106.133 294.629 103.067 297.429 100.8C300.362 98.4 303.296 97.2 306.229 97.2C307.162 97.2 308.229 97.4 309.429 97.8C310.762 98.0667 311.696 98.5333 312.229 99.2C310.629 101.2 308.962 103.667 307.229 106.6C305.629 109.533 304.096 112.667 302.629 116C301.296 119.2 300.229 122.467 299.429 125.8C298.629 129.133 298.229 132.2 298.229 135C298.229 137.667 298.696 139.867 299.629 141.6C300.696 143.333 302.496 144.2 305.029 144.2C307.562 144.2 310.562 142.8 314.029 140C317.629 137.067 321.029 133.733 324.229 130C319.962 126.133 316.896 121.933 315.029 117.4C313.162 112.733 312.229 107.133 312.229 100.6C312.229 97.8 312.896 94.6 314.229 91C315.696 87.4 317.962 84.2667 321.029 81.6C324.229 78.9333 328.496 77.6 333.829 77.6C339.562 77.6 343.562 79.2 345.829 82.4C348.229 85.6 349.429 89.4 349.429 93.8C349.429 98.7333 348.096 104.267 345.429 110.4C342.896 116.533 339.829 122.333 336.229 127.8C337.829 128.6 339.696 129 341.829 129C343.829 129 346.229 128.533 349.029 127.6C351.829 126.667 354.562 125.133 357.229 123C359.896 120.733 362.029 117.733 363.629 114L367.229 116.6C364.296 123.4 360.362 128.4 355.429 131.6C350.629 134.667 345.896 136.2 341.229 136.2C339.496 136.2 337.762 136.067 336.029 135.8C334.296 135.4 332.696 134.933 331.229 134.4C326.696 139.733 321.496 144.4 315.629 148.4C309.762 152.4 303.829 154.4 297.829 154.4ZM329.429 123.6C332.629 118.933 335.362 113.933 337.629 108.6C339.896 103.267 341.029 98.3333 341.029 93.8C341.029 90.7333 340.562 88.5333 339.629 87.2C338.696 85.7333 337.296 85 335.429 85C332.896 85 330.296 86.8 327.629 90.4C324.962 94 323.629 98.5333 323.629 104C323.629 106.8 324.096 110.2 325.029 114.2C326.096 118.2 327.562 121.333 329.429 123.6Z" stroke="black" stroke-width="6" mask="url(#path-1-outside-1_3_21)"/>
    <path d="M373.443 150C370.243 150 367.976 149.2 366.643 147.6C365.31 145.867 364.643 144.133 364.643 142.4C364.643 140.933 365.31 139.4 366.643 137.8C367.976 136.067 369.643 134.667 371.643 133.6C373.643 132.4 375.51 131.8 377.243 131.8C378.71 131.8 380.176 132.267 381.643 133.2C383.11 134 383.843 135.6 383.843 138C383.843 139.067 383.443 140.6 382.643 142.6C381.843 144.467 380.643 146.2 379.043 147.8C377.576 149.267 375.71 150 373.443 150Z" stroke="black" stroke-width="6" mask="url(#path-1-outside-1_3_21)"/>
    <path d="M421.88 150C418.68 150 416.414 149.2 415.08 147.6C413.747 145.867 413.08 144.133 413.08 142.4C413.08 140.933 413.747 139.4 415.08 137.8C416.414 136.067 418.08 134.667 420.08 133.6C422.08 132.4 423.947 131.8 425.68 131.8C427.147 131.8 428.614 132.267 430.08 133.2C431.547 134 432.28 135.6 432.28 138C432.28 139.067 431.88 140.6 431.08 142.6C430.28 144.467 429.08 146.2 427.48 147.8C426.014 149.267 424.147 150 421.88 150Z" stroke="black" stroke-width="6" mask="url(#path-1-outside-1_3_21)"/>
    <path d="M478.918 88.6C481.851 81 484.918 73.2 488.118 65.2C491.318 57.2 494.518 49.6 497.718 42.4C500.918 35.0667 504.051 28.5333 507.118 22.8C510.185 16.9333 513.118 12.3333 515.918 8.99998C518.851 5.66665 521.585 3.99998 524.118 3.99998C525.585 3.99998 526.851 4.59999 527.918 5.79999C529.118 6.86666 529.718 8.26665 529.718 9.99998C529.718 11.8666 528.585 15.5333 526.318 21C524.185 26.4667 521.318 33 517.718 40.6C514.118 48.2 510.118 56.2667 505.718 64.8C501.318 73.3333 496.918 81.7333 492.518 90C488.118 98.1333 483.985 105.467 480.118 112C476.251 118.533 473.051 123.6 470.518 127.2C470.118 127.067 469.718 126.933 469.318 126.8C468.918 126.667 468.518 126.533 468.118 126.4C468.251 122.933 468.851 119 469.918 114.6C471.118 110.2 472.518 105.733 474.118 101.2C475.851 96.5333 477.451 92.3333 478.918 88.6ZM463.918 150C461.785 150 459.918 149.467 458.318 148.4C456.718 147.333 455.918 145.6 455.918 143.2C455.918 140.667 457.251 138.467 459.918 136.6C462.718 134.733 465.718 133.8 468.918 133.8C470.918 133.8 472.518 134.267 473.718 135.2C475.051 136.133 475.718 137.733 475.718 140C475.718 142.267 474.518 144.533 472.118 146.8C469.718 148.933 466.985 150 463.918 150Z" stroke="black" stroke-width="6" mask="url(#path-1-outside-1_3_21)"/>
</svg>

